<?xml version="1.0" encoding="UTF-8"?>
<svg xmlns="http://www.w3.org/2000/svg" version="1.1" viewBox="0 0 120 120">
  <defs>
    <style>
      .cls-1 {
        fill: #00a026;
      }
    </style>
  </defs>
  <!-- Generator: Adobe Illustrator 28.7.1, SVG Export Plug-In . SVG Version: 1.2.0 Build 142)  -->
  <g>
    <g id="Capa_1">
      <path class="cls-1" d="M118.3,56.5v6.8c0,.3-.2.6-.2,1-.6,8.1-2.7,15.8-6.6,22.9-9,16.4-22.8,26.4-41.2,29.9-2.2.4-4.5.6-6.7.9h-6.8c-.3,0-.6-.2-.9-.2-8.1-.6-15.8-2.6-22.9-6.6C13.9,100.6,3.5,84.2,2.2,62.4c-.6-10.5,1.6-20.5,6.7-29.7C19.6,13.6,36,3.3,57.8,1.9c10.5-.6,20.5,1.7,29.7,6.7,16.4,9,26.4,22.8,29.9,41.2.4,2.2.6,4.5.9,6.7ZM109.3,59.9c0-27.1-22-49-49-49-27.1,0-49.1,22-49.1,49.1,0,27.1,22,49,49,49,27.1,0,49.1-22,49.1-49.1Z"/>
      <path class="cls-1" d="M52.4,68.9c.3-.5.5-.9.8-1.2,8.6-8.6,17.2-17.2,25.7-25.8,1.4-1.4,3-2.2,5-1.6,3,.9,4.2,4.4,2.3,7-.3.4-.7.8-1.1,1.2-9.7,9.7-19.5,19.5-29.2,29.2-2.7,2.7-5,2.6-7.7,0-4.5-4.5-9-9-13.6-13.6-1.8-1.8-2.1-4.2-.8-6.1,1.6-2.3,4.6-2.6,6.8-.7,1.6,1.5,3.1,3.1,4.7,4.6,2.2,2.2,4.4,4.4,7,7Z"/>
    </g>
  </g>
</svg>