<?xml version="1.0" encoding="UTF-8"?>
<svg xmlns="http://www.w3.org/2000/svg" version="1.1" viewBox="0 0 120 120">
  <defs>
    <style>
      .cls-1 {
        fill: #3d9f36;
        stroke: #e6e6e6;
        stroke-miterlimit: 10;
        stroke-width: 7px;
      }

      .cls-2 {
        fill: #fff;
      }
    </style>
  </defs>
  <!-- Generator: Adobe Illustrator 28.7.1, SVG Export Plug-In . SVG Version: 1.2.0 Build 142)  -->
  <g>
    <g id="Capa_1">
      <circle class="cls-1" cx="59.3" cy="59.4" r="54.8"/>
      <g id="kWmX1k.tif">
        <g>
          <path class="cls-2" d="M73.7,55.1c0-7.5-6.1-13.7-13.7-13.7-7.5,0-13.7,6.1-13.7,13.6s6.1,13.7,13.7,13.7c7.6,0,13.7-6.1,13.7-13.7ZM91.4,50.6c-6.2-9.8-12.2-19.5-18.3-29.2-3.4,5.4-6.7,10.7-10.1,16.1,6.8,1.5,11.5,5.2,13.9,11.7,2.3,6.5,1,12.4-3.2,17.7,4.4,2.5,7.8,5.9,10.4,10.1,0,0,0,0,.1,0v-26.3c2.4,0,4.7,0,7.2,0ZM49,41c-1.2-1.8-2.3-3.7-3.5-5.6-6.1,9.7-12.2,19.4-18.3,29.2h7.3v15.2c2.7-5.6,6.7-9.9,12.1-13-3.3-4-4.8-8.5-4.2-13.5.4-5.1,2.8-9.1,6.8-12.4ZM63.8,72.6c-2.6.5-5,.5-7.6,0,.7,1.7,1.4,3.3,2.1,4.9,0,.1.3.2.5.2.7,0,1.5,0,2.2,0,.2,0,.4-.1.5-.3.7-1.5,1.4-3.1,2.2-4.8Z"/>
          <path class="cls-2" d="M36.4,93.3c-.3-6.5,1.3-12.3,5.5-17.3,2.1-2.5,4.7-4.5,7.6-6,.6-.3,1,0,1.2.5,1.4,3.1,2.8,6.2,4.1,9.3,0,.1,0,.3,0,.5-1,4.3-2.1,8.6-3.1,13,0,0,0,0,0,0-5.1,0-10.2,0-15.4,0Z"/>
          <path class="cls-2" d="M68.7,93.3c-.8-3.2-1.5-6.5-2.3-9.7-.3-1.2-.6-2.3-.8-3.5,0-.3,0-.7,0-1.1,1.2-2.7,2.4-5.5,3.7-8.2.4-.8.8-1,1.6-.5,8.3,4.6,12.5,11.6,12.8,21.1v2c-5.1,0-10.1,0-15.1,0Z"/>
          <path class="cls-2" d="M56,93.3c.8-3.5,1.7-7,2.5-10.5.1-.7.4-1,1.1-.9.6,0,1.2,0,1.9,0,.4,1.8.9,3.7,1.3,5.5.4,1.9.9,3.9,1.4,5.9h-8.4Z"/>
          <path class="cls-2" d="M73.7,55.1c0,7.6-6.2,13.7-13.7,13.7s-13.7-6.2-13.7-13.7c0-7.6,6.2-13.7,13.7-13.6,7.5,0,13.6,6.2,13.6,13.7Z"/>
          <path class="cls-2" d="M91.4,50.6h-7.2v26.3s0,0-.1,0c-2.6-4.3-6.1-7.7-10.4-10.1,4.2-5.4,5.5-11.3,3.2-17.7s-7.1-10.2-13.9-11.7c3.3-5.3,6.7-10.6,10.1-16.1,6.1,9.7,12.2,19.4,18.3,29.2Z"/>
          <path class="cls-2" d="M49,41c-3.9,3.2-6.3,7.3-6.8,12.3-.5,5.1,1,9.5,4.2,13.5-5.4,3.1-9.3,7.4-12.1,13v-15.2h-7.3c6.2-9.8,12.2-19.4,18.3-29.2,1.2,2,2.3,3.8,3.5,5.6Z"/>
          <path class="cls-2" d="M63.8,72.6c-.7,1.7-1.4,3.3-2.2,4.8,0,.1-.3.3-.5.3-.7,0-1.5,0-2.2,0-.1,0-.4,0-.5-.2-.7-1.6-1.4-3.1-2.1-4.9,2.5.5,5,.5,7.6,0Z"/>
        </g>
      </g>
    </g>
  </g>
</svg>