<?xml version="1.0" encoding="UTF-8"?>
<svg xmlns="http://www.w3.org/2000/svg" version="1.1" viewBox="0 0 120 120">
  <defs>
    <style>
      .cls-1 {
        fill: #3d9f36;
        stroke: #e6e6e6;
        stroke-miterlimit: 10;
        stroke-width: 7px;
      }

      .cls-2 {
        fill: #fff;
      }
    </style>
  </defs>
  <!-- Generator: Adobe Illustrator 28.7.1, SVG Export Plug-In . SVG Version: 1.2.0 Build 142)  -->
  <g>
    <g id="Capa_1">
      <circle class="cls-1" cx="60.3" cy="60.7" r="54.8"/>
      <g id="hnLPij.tif">
        <g>
          <path class="cls-2" d="M55.6,98.9c-.2-2.2-.5-4.3-.7-6.4-.1-.9-.2-1.7-.3-2.6,0-.2-.2-.4-.4-.5-2.2-.8-4.2-1.7-6.6-2.5-2.2,1.8-4.6,3.8-7,5.7-2.2-2.2-4.4-4.4-6.7-6.7.1-.1.3-.4.5-.6,1.7-2,3.3-4.1,5-6.1.3-.3.3-.6.1-1-.8-1.9-1.6-3.8-2.3-5.6-.2-.4-.3-.6-.8-.7-2.8-.3-5.5-.6-8.3-.9-.2,0-.5-.3-.5-.4,0-1.4,0-2.8,0-4.2h21.6c.1,3.5,1.5,6.4,4.2,8.5,2,1.6,4.3,2.4,6.8,2.4s5.6-1.1,7.8-3.3c2.1-2.1,3.1-4.7,3.2-7.8h20.9c.3,0,.5,0,.8.1v4.5c-.1,0-.3.1-.4.1-2.8.3-5.6.6-8.4.9-.5,0-.7.2-.8.7-.7,1.9-1.5,3.8-2.3,5.6-.2.4-.2.7.1,1,1.7,2,3.3,4.1,5,6.1.2.2.4.5.4.6-2.3,2.3-4.4,4.5-6.6,6.7-2.4-1.9-4.8-3.9-7-5.7-2.3.9-4.4,1.7-6.6,2.5-.2,0-.4.3-.4.5-.1.9-.2,1.7-.3,2.6-.2,2.2-.5,4.3-.7,6.4-3.3,0-6.3,0-9.4,0Z"/>
          <path class="cls-2" d="M92.9,61.9h-11.9c0-.3,0-.5,0-.8,0-3,0-6.1,0-9,0-2.2-.3-4.3-1.4-6.4.3,0,.4,0,.6,0,2.2,0,4.5,0,6.7.1,3.1.2,5.5,2.8,5.8,5.8,0,.1,0,.3.1.4,0,3.4,0,6.6,0,9.9Z"/>
          <path class="cls-2" d="M76.7,61.9h-32.8c0-.2,0-.3,0-.4,0-3.5,0-7,0-10.5.1-3.9,3.3-7.2,7.1-7.2,6.2-.1,12.4-.1,18.6,0,3.9,0,7.1,3.3,7.1,7.2,0,3.5,0,7,0,10.5,0,.1,0,.2,0,.4Z"/>
          <path class="cls-2" d="M60.2,41.4c-4.6,0-8.4-3.9-8.4-8.5,0-4.6,3.9-8.4,8.5-8.4s8.4,3.9,8.4,8.5c0,4.6-3.9,8.4-8.5,8.4Z"/>
          <path class="cls-2" d="M40.6,45.6c-.4,1.3-.8,2.5-1,3.8-.2.8-.2,1.5-.2,2.3v10.1h-11.8c0-.2,0-.4,0-.7v-8.5c0-2.9,1.2-5.1,3.9-6.4.9-.4,1.9-.7,2.9-.7,2.2-.1,4.3,0,6.3,0Z"/>
          <path class="cls-2" d="M42.3,28.4c5.5,0,9.2,5.7,6.9,10.6-.1.3-.5.6-.8.7-2.3.6-4.2,1.8-5.8,3.5-.2.2-.6.3-.8.3-4-.3-7.1-3.8-6.9-7.9.2-3.9,3.6-7.1,7.6-7.1Z"/>
          <path class="cls-2" d="M78.1,28.4c3.4,0,6.5,2.4,7.3,5.7.9,3.3-.6,6.8-3.6,8.4-.9.5-2,.7-3,.9-.3,0-.7-.1-.9-.3-1.7-1.7-3.6-2.9-5.9-3.5-.3,0-.6-.4-.7-.7-2.3-4.9,1.5-10.6,6.9-10.6Z"/>
        </g>
      </g>
    </g>
  </g>
</svg>