<?xml version="1.0" encoding="UTF-8"?>
<svg xmlns="http://www.w3.org/2000/svg" version="1.1" viewBox="0 0 120 120">
  <defs>
    <style>
      .cls-1 {
        fill: #3d9f36;
      }
    </style>
  </defs>
  <!-- Generator: Adobe Illustrator 28.7.1, SVG Export Plug-In . SVG Version: 1.2.0 Build 142)  -->
  <g>
    <g id="Capa_1">
      <g id="w2dPLE.tif">
        <path class="cls-1" d="M56.4,1c2.4,0,4.8,0,7.1,0,.3,0,.6.2.9.2,8.9.7,17.2,3.1,24.8,7.7,15.7,9.3,25.3,23,28.7,40.9.4,2.1.6,4.3.9,6.5v7.1c0,.4-.1.7-.2,1.1-.5,3-.7,6.1-1.4,9.1-8.4,35.3-46.6,54.8-80,40.7C11.6,103.7-2.9,77.2,1.8,49.7,5.8,26.1,24.6,6.8,48.2,2.2c2.7-.5,5.5-.8,8.2-1.2ZM63.7,52.6c0-2.8,0-5.3,0-7.9,0-2.5,1.4-3.9,3.9-4.1,1.6-.1,3.3,0,4.9-.1,1.3,0,1.8-.5,1.8-1.8,0-2.1,0-4.2,0-6.3,0-1.3-.6-1.8-1.8-1.8-2.4,0-4.8,0-7.3,0-6.6.2-11.4,4.4-12.2,10.9-.4,3.2-.2,6.5-.3,9.8,0,.4,0,.9,0,1.4-2.2,0-4.1,0-6.1,0-1.3,0-1.8.6-1.9,1.8,0,2.6,0,5.1,0,7.7,0,1.2.5,1.7,1.7,1.7,1.2,0,2.5,0,3.7,0,.9,0,1.7,0,2.7,0,0,.6,0,1,0,1.4,0,7.4,0,14.7,0,22.1,0,1.8.2,1.9,1.9,1.9,2.3,0,4.7,0,7,0,1.7,0,1.9-.2,1.9-1.9,0-7.4,0-14.7,0-22.1,0-.4,0-.9,0-1.4.5,0,.9,0,1.2,0,2.2,0,4.5,0,6.7,0,1.7,0,2.1-.4,2.2-2.1.2-2.2.5-4.3.8-6.5.3-2.2-.1-2.7-2.4-2.7-2.8,0-5.6,0-8.5,0Z"/>
      </g>
    </g>
  </g>
</svg>