<?xml version="1.0" encoding="UTF-8"?>
<svg xmlns="http://www.w3.org/2000/svg" version="1.1" viewBox="0 0 120 120">
  <defs>
    <style>
      .cls-1 {
        fill: #3d9f36;
      }
    </style>
  </defs>
  <!-- Generator: Adobe Illustrator 28.7.1, SVG Export Plug-In . SVG Version: 1.2.0 Build 142)  -->
  <g>
    <g id="Capa_1">
      <g id="Ufcbxy.tif">
        <g>
          <path class="cls-1" d="M.9,63.4c0-2.5,0-4.9,0-7.4.4-2.6.6-5.2,1.1-7.7C6.9,23,28.5,3.3,54.2,1c12.6-1.2,24.6,1.1,35.4,7.8,21.2,13,31,32.2,29.1,57-.9,11.7-5.4,22.2-12.9,31.3-9.3,11.3-21.1,18.3-35.6,21-2.2.4-4.4.6-6.6.9h-7.4c-1.4-.2-2.9-.3-4.3-.5-10.9-1.6-20.7-5.7-29.2-12.7-11.3-9.3-18.3-21.1-20.9-35.5-.4-2.2-.6-4.4-.9-6.6ZM25.9,59.8c.2,5.6.2,11.3.7,16.9.7,8.6,6.7,15,15.2,16.3,4.3.6,8.7.7,13,.7,7.3,0,14.7,0,22-.5,6.8-.5,11.9-4,14.9-10.2,1.3-2.7,1.9-5.7,1.9-8.7.1-8,.2-15.9.2-23.9,0-2.5-.2-5-.4-7.5-.9-8.6-6.7-15-15.3-16.2-4.2-.6-8.6-.7-12.9-.7-7.4,0-14.8,0-22.1.5-9.2.6-15.8,7.4-16.6,16.6-.5,5.6-.5,11.2-.7,16.9Z"/>
          <path class="cls-1" d="M59.9,31.8c5.1.1,10.3.2,15.4.5,7.1.4,11.8,4.9,12,12,.3,10.3.3,20.5,0,30.8-.2,7.2-4.9,11.9-12.1,12.1-10.2.3-20.4.3-30.7,0-7.2-.2-11.9-4.9-12.1-12-.3-10.3-.3-20.5,0-30.8.2-7.2,4.9-11.6,12-12.1,2.6-.2,5.1-.2,7.7-.3,2.5,0,5.1,0,7.6,0h0ZM77.4,59.7c0-9.6-7.7-17.4-17.4-17.4-9.6,0-17.5,7.8-17.5,17.4,0,9.6,7.7,17.4,17.4,17.4,9.6,0,17.5-7.8,17.5-17.4ZM82.1,41.8c0-2.2-1.7-4.1-3.9-4.2-2.3,0-4.2,1.7-4.2,3.9,0,2.3,1.7,4.1,3.9,4.2,2.3,0,4.2-1.7,4.2-3.9Z"/>
          <path class="cls-1" d="M71.3,59.7c0,6.2-5.1,11.3-11.3,11.3-6.3,0-11.4-5.1-11.3-11.4,0-6.2,5.1-11.3,11.3-11.3,6.2,0,11.3,5.1,11.3,11.3Z"/>
        </g>
      </g>
    </g>
  </g>
</svg>