<?xml version="1.0" encoding="UTF-8"?>
<svg xmlns="http://www.w3.org/2000/svg" version="1.1" viewBox="0 0 120 120">
  <defs>
    <style>
      .cls-1 {
        fill: #3d9f36;
      }
    </style>
  </defs>
  <!-- Generator: Adobe Illustrator 28.7.1, SVG Export Plug-In . SVG Version: 1.2.0 Build 142)  -->
  <g>
    <g id="Capa_1">
      <g id="PIrwx0.tif">
        <g>
          <path class="cls-1" d="M56.4,1.3c2.4,0,4.9,0,7.3,0,2,.3,4,.5,6,.8,11,1.9,20.8,6.5,29.1,13.9,10.2,9.1,16.6,20.4,19,33.9.4,2.1.6,4.3.9,6.4v7.3c-.2,1.4-.3,2.9-.5,4.3-1.7,11.7-6.4,22.1-14.3,30.9-9,10.1-20.3,16.5-33.7,18.9-2.2.4-4.4.6-6.6.9h-7.3c-1.4-.2-2.9-.3-4.3-.5-11.7-1.7-22-6.3-30.8-14.2-10.2-9.1-16.6-20.3-19-33.7-.4-2.2-.6-4.4-.9-6.6,0-2.4,0-4.9,0-7.3.3-2,.4-3.9.8-5.9,2.1-12.2,7.4-22.8,16.1-31.6C27.1,10,37.6,4.4,50,2.2c2.1-.4,4.3-.6,6.4-.9ZM60.1,87.1c8.9,0,17.8,0,26.7,0,.9,0,1.8,0,2.6-.2,5.3-1,8.9-5.3,8.9-10.7,0-10.7,0-21.3,0-32,0-6.9-4.5-11.4-11.4-11.4-17.9,0-35.9,0-53.8,0-.8,0-1.7,0-2.5.2-5.2,1-8.8,5.3-8.8,10.6,0,10.7,0,21.3,0,32,0,7,4.4,11.5,11.4,11.5,9,0,17.9,0,26.9,0Z"/>
          <path class="cls-1" d="M89,81.5c-7.5-7.7-14.8-15.2-22.2-22.8-1.6,1.1-3.1,2.1-4.6,3.1-1.8,1.2-2.6,1.3-4.4,0-1.5-1-3-2.1-4.6-3.1-7.3,7.6-14.6,15.1-22.1,22.8h57.8ZM86.6,38.5h-52.9c.3.2.4.4.6.5,8.4,5.8,16.8,11.5,25.2,17.3.6.4.9.3,1.4,0,3.4-2.3,6.7-4.6,10.1-6.9,5.1-3.5,10.3-7,15.7-10.8ZM27.9,41.3c-.6,1.3-.9,34.3-.4,36.1,7.1-7.3,14.1-14.5,21.2-21.8-7-4.8-13.9-9.5-20.8-14.3ZM92.8,77.5c0-.5,0-.8,0-1,0-11,0-22,0-33,0-.7-.3-1.4-.4-2.3-7.1,4.9-14,9.6-21,14.4,7.1,7.3,14.1,14.5,21.3,21.9Z"/>
          <path class="cls-1" d="M89,81.5H31.2c7.5-7.7,14.8-15.2,22.1-22.8,1.6,1.1,3.1,2.1,4.6,3.1,1.8,1.2,2.5,1.2,4.4,0,1.5-1,3-2,4.6-3.1,7.3,7.5,14.6,15,22.2,22.8Z"/>
          <path class="cls-1" d="M86.6,38.5c-5.4,3.7-10.5,7.2-15.7,10.8-3.4,2.3-6.7,4.6-10.1,6.9-.5.3-.8.5-1.4,0-8.4-5.8-16.8-11.5-25.2-17.3-.1,0-.3-.2-.6-.5h52.9Z"/>
          <path class="cls-1" d="M27.9,41.3c7,4.8,13.8,9.5,20.8,14.3-7.1,7.3-14.1,14.5-21.2,21.8-.6-1.8-.3-34.7.4-36.1Z"/>
          <path class="cls-1" d="M92.8,77.5c-7.2-7.4-14.2-14.6-21.3-21.9,7-4.8,13.9-9.5,21-14.4.2.9.4,1.6.4,2.3,0,11,0,22,0,33,0,.2,0,.4,0,1Z"/>
        </g>
      </g>
    </g>
  </g>
</svg>