<?xml version="1.0" encoding="UTF-8"?>
<svg xmlns="http://www.w3.org/2000/svg" version="1.1" viewBox="0 0 120 120">
  <defs>
    <style>
      .cls-1 {
        fill: #3d9f36;
      }
    </style>
  </defs>
  <!-- Generator: Adobe Illustrator 28.7.1, SVG Export Plug-In . SVG Version: 1.2.0 Build 142)  -->
  <g>
    <g id="Capa_1">
      <g>
        <path class="cls-1" d="M63.5,119.1h-6.5c-.4,0-.7-.2-1.1-.2-7.7-.5-15-2.5-21.8-6C10.1,100.9-2.7,75,2.3,48.7,8.1,18.2,37.2-2.7,68,1.5c11.9,1.6,22.5,6.4,31.5,14.4,10.6,9.5,17.1,21.4,19.2,35.5.3,1.8.5,3.6.7,5.4v6.5c-.3,2.1-.4,4.1-.8,6.1-2.3,13.5-8.4,24.9-18.4,34.1-8.9,8.2-19.3,13.2-31.3,14.9-1.8.3-3.6.5-5.3.7ZM60.2,98.6c.2-.4.4-.6.5-.9,7.3-13.4,14.5-26.8,21.7-40.2,2.6-4.8,3.3-10,2.4-15.3-2.3-13.7-14.8-22.6-28.5-20.6-16.8,2.5-26.2,21.4-18.1,36.3,7.1,13.1,14.2,26.3,21.3,39.4.2.4.4.7.7,1.3Z"/>
        <path class="cls-1" d="M60.2,57c-6.1,0-11-5-10.9-11,0-6.1,5-10.9,11.1-10.9,6,0,10.9,5,10.9,11,0,6.1-5,11-11.1,10.9Z"/>
      </g>
    </g>
  </g>
</svg>