<?xml version="1.0" encoding="UTF-8"?>
<svg xmlns="http://www.w3.org/2000/svg" version="1.1" viewBox="0 0 120 120">
  <defs>
    <style>
      .cls-1 {
        fill: #3d9f36;
      }
    </style>
  </defs>
  <!-- Generator: Adobe Illustrator 28.7.1, SVG Export Plug-In . SVG Version: 1.2.0 Build 142)  -->
  <g>
    <g id="Capa_1">
      <path class="cls-1" d="M6.9,114c1.8-6.6,3.4-12.8,5.2-19,.5-1.6.2-2.8-.6-4.2C-9.6,56.7,8.5,13.2,47.6,4.1c31.9-7.4,64.2,14.6,69.1,47.1,4.8,31.7-16.4,60.8-48,65.8-13.6,2.1-26.4-.6-38.4-7.5-1-.6-2.4-.7-3.5-.5-6.5,1.6-12.9,3.3-19.9,5.1ZM78.1,93.3c1.1,0,2.2,0,3.2-.2,8-1.6,14-6.2,13.7-14.8,0-.8-.5-2.1-1.1-2.4-4.8-2.5-9.7-4.7-14.6-7-1.4-.7-2.6-.2-3.5,1.1-1.6,2.2-3.4,4.2-5.1,6.3-1,1.3-2.3,1.5-3.8.9-10.1-4-17.9-10.9-23.5-20.2-.9-1.5-.7-2.6.3-3.9,1.4-1.7,2.8-3.4,3.9-5.2.6-1,.9-2.5.5-3.5-1.7-4.6-3.6-9.1-5.6-13.5-.4-.9-1.2-1.8-2-2.3-2.3-1.2-7.4-.3-9.3,1.6-5.4,5.2-7.3,11.6-5.8,18.9,1.3,6.3,4.8,11.4,8.6,16.4,7.3,9.6,15.8,18,27,23,5.5,2.4,11,4.9,17.1,4.9Z"/>
    </g>
  </g>
</svg>