<?xml version="1.0" encoding="UTF-8"?>
<svg xmlns="http://www.w3.org/2000/svg" version="1.1" viewBox="0 0 120 120">
  <defs>
    <style>
      .cls-1 {
        fill: #3d9f36;
        stroke: #e6e6e6;
        stroke-miterlimit: 10;
        stroke-width: 7px;
      }

      .cls-2 {
        fill: #fff;
      }
    </style>
  </defs>
  <!-- Generator: Adobe Illustrator 28.7.1, SVG Export Plug-In . SVG Version: 1.2.0 Build 142)  -->
  <g>
    <g id="Capa_1">
      <circle class="cls-1" cx="59.3" cy="60.3" r="54.8"/>
      <g id="R1AAKy.tif">
        <g>
          <path class="cls-2" d="M61.3,27.9c1.2.2,2.5.3,3.7.5,3.2.6,6.3,1.6,9.2,3.1,0,0,.2.1.4.2-.4.4-.8.8-1.2,1.2-1.1,1.1-2.2,2.2-3.3,3.3-.3.3-.5.3-.9.2-4-1.7-8.2-2.3-12.5-1.8-7.4.8-13.5,4.2-18.1,10.1-3.8,5-5.5,10.6-5.3,16.9.5,11.9,9.2,22,20.9,24.3,13.8,2.7,27.2-5.9,30.4-19.7,1.2-5.3.8-10.5-1.3-15.6-.2-.5-.2-.8.2-1.1,1.5-1.4,2.9-2.9,4.4-4.4.5,1,.9,1.8,1.3,2.7,1.4,3.2,2.2,6.6,2.4,10.1,0,.2,0,.4.1.6v3.8c0,.2,0,.4-.1.6-.2,2.7-.7,5.3-1.6,7.9-4.3,11.7-12.5,18.9-24.7,21.6-1.4.3-2.8.4-4.2.6h-3.9c-.1,0-.3,0-.4-.1-3.3-.2-6.5-.9-9.5-2.2-11-4.7-17.7-12.9-20-24.6-.2-1.2-.3-2.4-.5-3.6,0-1.4,0-2.7,0-4.1,0-.2,0-.4.1-.5.3-1.9.4-3.8.9-5.5,3.8-13.1,12.5-21.1,25.9-23.9,1.2-.2,2.3-.3,3.5-.5,1.4,0,2.7,0,4.1,0Z"/>
          <path class="cls-2" d="M67.2,39.1c-1.8,1.8-1.3,4.1-1.4,6.3-5.2-2-10.2-1.8-15,1.1-3,1.8-5.1,4.4-6.5,7.6-2.7,6.5-.9,14,4.4,18.6,5.4,4.6,13.1,5.3,19.2,1.5,2.2-1.4,4-3.2,5.4-5.4,1.4-2.2,2.1-4.7,2.3-7.3.2-2.6-.3-5.1-1.3-7.6,2.2-.2,4.5.4,6.3-1.4,2.7,6.1,2.4,17-5.7,24.5-8.6,8-21.5,8.3-30.5.7-8.7-7.4-10.5-20.3-4.1-30,6.4-9.6,18.2-12.1,26.9-8.6Z"/>
          <path class="cls-2" d="M64.5,48.5c-.3.2-.5.3-.7.5-2.7,2.6-5.3,5.3-7.9,7.9-2.6,2.7-1.6,7,1.9,8.1,1.9.6,3.7.1,5.1-1.3,2.6-2.6,5.2-5.2,7.8-7.8.2-.2.3-.4.5-.7,2.2,4.7,1.3,11.4-3.9,15.5-5,3.9-12.1,3.6-16.8-.8-4.6-4.3-5.4-11.4-1.9-16.7,3.4-5.2,10.3-7.2,16-4.7Z"/>
          <path class="cls-2" d="M82,37.6c1.7,0,3.2,0,4.8,0,1.1,0,1.9.9,1.6,1.9,0,.3-.3.7-.6,1-3.1,3.2-6.3,6.3-9.5,9.4-.4.3-1,.6-1.5.6-1.7,0-3.4,0-5.1,0-.3,0-.7.2-.9.4-3.4,3.4-6.8,6.8-10.2,10.2-.3.3-.7.6-1.2.7-.6.2-1.3-.1-1.6-.7-.3-.6-.3-1.2,0-1.7.1-.2.4-.4.5-.6,3.4-3.4,6.8-6.7,10.1-10.1.2-.2.4-.6.4-1,0-1.7,0-3.3,0-5,0-.6.2-1.1.6-1.5,3.1-3.1,6.3-6.3,9.4-9.4.6-.6,1.2-.8,1.9-.5.8.3,1,1,1,1.7,0,1.5,0,3,0,4.6Z"/>
        </g>
      </g>
    </g>
  </g>
</svg>