<?xml version="1.0" encoding="UTF-8"?>
<svg xmlns="http://www.w3.org/2000/svg" version="1.1" viewBox="0 0 120 120">
  <defs>
    <style>
      .cls-1 {
        fill: #3d9f36;
        stroke: #e6e6e6;
        stroke-miterlimit: 10;
        stroke-width: 7px;
      }

      .cls-2 {
        fill: #fff;
      }
    </style>
  </defs>
  <!-- Generator: Adobe Illustrator 28.7.1, SVG Export Plug-In . SVG Version: 1.2.0 Build 142)  -->
  <g>
    <g id="Capa_1">
      <circle class="cls-1" cx="59.7" cy="59.9" r="54.8"/>
      <g id="yeLYhR">
        <g>
          <path class="cls-2" d="M59.6,77.7c-3.4,0-6.7,0-10.1,0-.3,0-.8-.2-1-.5-1.8-3.2-3.6-6.5-5.5-9.7-2-3.3-4.1-6.7-4.7-10.6-1.4-9,1.6-16.3,9-21.5,13.2-9.2,31.2-1.4,33.7,14.5.8,4.8-.3,9.3-2.6,13.5-1.8,3.3-3.9,6.5-5.8,9.8-.7,1.1-1.2,2.3-1.8,3.5-.3.7-.7,1-1.5,1-3.3,0-6.6,0-9.9,0h0ZM74.8,49.2c-1.2-2.1-2.3-4-3.5-6-1.8,1-3.5,2-5.2,2.9-.2.1-.6.2-.9.1-2.2-1-2.2-1-2.2-3.5v-3.9h-6.9c0,2,0,3.9,0,5.9,0,.3-.1.7-.4.9-.6.5-1.3.9-2,1.3-1.8-1-3.6-2.1-5.4-3.1-1.2,2-2.3,4-3.4,6,1.2.7,2.3,1.5,3.5,2,1.5.7,2.5,1.5,2.3,3.4,0,.5,0,.9-.6,1.1-1.6.9-3.2,1.8-4.8,2.8,1.2,2,2.3,4,3.5,6,1.4-.8,2.7-1.5,4-2.4,1.1-.7,2.1-1,3.3-.1.7.4,1,.8,1,1.6,0,1.7,0,3.4,0,5.1h6.9c0-1.4,0-2.8,0-4.2-.1-1.6.1-2.8,1.8-3.5.5-.2.9-.3,1.4,0,1.5.9,3.1,1.8,4.7,2.7,1.2-2,2.3-4,3.4-6-1.3-.8-2.5-1.6-3.8-2.2-1.4-.7-2.2-1.5-2-3.1,0-.6.1-1,.7-1.3,1.6-.7,3.1-1.7,4.7-2.6Z"/>
          <path class="cls-2" d="M50.4,85.9h18.7c0,1.9,0,3.8,0,5.7,0,.7-.5,1-1.2,1h-2.4v1.5c0,.8-.2,1.4-1.1,1.4s-1.1-.6-1-1.3v-1.4h-7.2v1.6c0,.7-.3,1.2-1,1.2-.7,0-1.1-.5-1.1-1.2v-1.7h-2.4c-.7,0-1.1-.4-1.2-1.1,0-1.9,0-3.7,0-5.7Z"/>
          <path class="cls-2" d="M50.2,83.6c0-.7-.1-1.2-.2-1.8s-.2-1.2-.4-1.8h20.1c-.2,1.2-.4,2.4-.6,3.7h-19Z"/>
          <path class="cls-2" d="M32.2,53c.4,0,.9,0,1.3,0,.9,0,1.5.8,1.5,1.6s-.6,1.5-1.4,1.6c-.9,0-1.8,0-2.7,0-.9,0-1.5-.7-1.5-1.6,0-.8.6-1.5,1.5-1.6.4,0,.9,0,1.3,0h0Z"/>
          <path class="cls-2" d="M87.2,56.2c-.4,0-.9,0-1.3,0-.8-.1-1.4-.8-1.4-1.6s.6-1.5,1.5-1.6,1.7,0,2.6,0c.9,0,1.5.7,1.5,1.6s-.6,1.5-1.5,1.6c-.4,0-.9,0-1.3,0,0,0,0,0,0,0Z"/>
          <path class="cls-2" d="M37,43.4c-1.3-.9-2.4-1.5-3.4-2.4-.3-.2-.1-1.3.1-1.7.3-.4,1.2-.7,1.7-.5.9.3,1.8.8,2.6,1.5.4.3.6,1.2.4,1.7-.1.5-.8.9-1.4,1.4Z"/>
          <path class="cls-2" d="M86.2,40.6c-.2.2-.6.9-1.1,1.2-1,.5-1.9,1.8-3.3,1.1-1-.5-1.2-1.9-.3-2.6.8-.6,1.7-1.1,2.6-1.5,1-.4,2.1.3,2.1,1.8Z"/>
          <path class="cls-2" d="M73.8,28.2c1.4,0,2.2,1.2,1.7,2.3-.4.8-.9,1.6-1.4,2.4-.5.7-1.2.8-2,.5-.8-.4-1.1-1.1-.8-1.8.4-1,1-1.9,1.6-2.7.2-.3.7-.4.9-.5Z"/>
          <path class="cls-2" d="M48.5,31.8c-.5.6-.9,1.2-1.3,1.4-.5.1-1.4,0-1.7-.4-.7-.7-1.1-1.6-1.5-2.6-.3-.7,0-1.3.5-1.8.6-.4,1.3-.6,1.8,0,.9,1,1.5,2.1,2.3,3.4Z"/>
          <path class="cls-2" d="M61.3,27.1c0,.4,0,.9,0,1.4,0,.9-.7,1.4-1.5,1.5-.9,0-1.6-.6-1.6-1.5,0-.9,0-1.8,0-2.6,0-.9.7-1.5,1.6-1.5s1.5.7,1.6,1.5c0,.4,0,.8,0,1.2h0Z"/>
          <path class="cls-2" d="M55,54.3c0-2.8,2.2-5.1,5-5.1s5.1,2.2,5.1,5c0,2.7-2.3,5-5,5.1-2.8,0-5.1-2.3-5.1-5Z"/>
        </g>
      </g>
    </g>
  </g>
</svg>