<?xml version="1.0" encoding="UTF-8"?>
<svg xmlns="http://www.w3.org/2000/svg" version="1.1" viewBox="0 0 120 120">
  <defs>
    <style>
      .cls-1 {
        fill: #3d9f36;
        stroke: #e6e6e6;
        stroke-miterlimit: 10;
        stroke-width: 7px;
      }

      .cls-2 {
        fill: #fff;
      }
    </style>
  </defs>
  <!-- Generator: Adobe Illustrator 28.7.1, SVG Export Plug-In . SVG Version: 1.2.0 Build 142)  -->
  <g>
    <g id="Capa_1">
      <circle class="cls-1" cx="60.4" cy="59.9" r="54.8"/>
      <g id="nSUZIi.tif">
        <g>
          <path class="cls-2" d="M57.6,26.7c1.7,0,3.4,0,5.1,0,.2,0,.4.1.6.1,4.1.3,8,1.4,11.6,3.3,9.9,5.1,15.8,13.2,17.7,24.3.2,1.2.3,2.3.4,3.5v2.5c0,.3,0,.7-.1,1-.3,1.8-.5,3.5-.8,5.3-.3,1.4-1.6,2.1-2.9,1.8-1.3-.3-2-1.5-1.8-2.9.3-1.8.6-3.6.7-5.4.2-2.7-.2-5.3-.9-7.9h-11.5c0,.6.2,1.2.2,1.7,0,.6.1,1.3,0,1.8-.2,1-1.3,1.7-2.3,1.7-1.1,0-2-.7-2.2-1.8-.2-.9-.3-1.9-.4-2.9,0-.4-.2-.6-.6-.6-6.7,0-13.3,0-20,0-.4,0-.6.1-.7.6-.7,4.2-.7,8.3,0,12.5.1.6.3.8.9.8,3.2,0,6.4,0,9.6,0,1.3,0,2.3,1,2.3,2.3,0,1.3-.9,2.3-2.2,2.4-.3,0-.6,0-.9,0-2.8,0-5.5,0-8.3,0,0,.1,0,.2,0,.3,2.1,6.3,5.7,11.7,10.6,16.1.9.8,1.2,1.7.8,2.8-.4,1-1.2,1.7-2.4,1.6-1.7,0-3.3-.2-4.9-.4-13.5-2.1-24.4-12.8-26.7-26.2-.3-1.5-.4-3-.6-4.5,0-1,0-2.1,0-3.1.2-1.5.3-3.1.7-4.5,3.3-13.3,11.5-21.7,24.7-25.3,1.4-.4,2.9-.5,4.4-.8ZM51.1,47.4h18.5c-.3-3.4-6.5-13.5-9.3-15.1-3.9,3.5-8.6,11.2-9.3,15.1ZM45,52.3h-11.4c-1.2,4.6-1.2,9.1,0,13.7h11.4c-.7-4.6-.7-9.1,0-13.7ZM66.9,32.3s0,0,0,.1c0,.1.2.2.3.4,3.3,4.3,5.9,9,7.3,14.2.1.4.3.5.7.5,3.3,0,6.6,0,9.9,0,.1,0,.2,0,.4,0-2.8-6.7-10.1-13.5-18.6-15.2ZM35.3,70.8c4,8,10.1,13,18.8,15.3-.9-1.2-1.7-2.2-2.4-3.3-2.4-3.5-4.2-7.4-5.5-11.5,0-.2-.3-.5-.5-.5-3.4,0-6.8,0-10.4,0ZM35.4,47.4c0,0,.1,0,.2,0,3.3,0,6.6,0,9.9,0,.5,0,.6-.2.7-.6,1.3-4.6,3.4-8.8,6.2-12.6.5-.6.9-1.3,1.4-1.9-5.7,0-16.8,9-18.5,15.1Z"/>
          <path class="cls-2" d="M77.8,93.2c-1.8-.5-2.9-1.7-3.6-3.4-.6-1.4-1.3-2.7-1.9-4.2-.4.5-.9,1-1.3,1.4-1.4,1.5-3.2,2-5,1.2-1.8-.7-2.7-2.3-2.6-4.4.3-3.6.6-7.1.9-10.6.3-3.6.6-7.2,1-10.7.4-3.4,3.9-5,6.8-3,4.3,2.9,8.5,5.9,12.7,8.9,1.6,1.1,3.1,2.2,4.7,3.3,1.7,1.2,2.3,3,1.7,4.9-.6,1.9-2.1,3-4.2,3-.6,0-1.1,0-1.8,0,.8,1.7,1.5,3.2,2.2,4.8.3.8.6,1.6.6,2.4,0,1.7-.9,3-2.5,3.7-2.1,1-4.1,1.9-6.2,2.8h-1.5ZM69.9,63.8c-.6,6.4-1.1,12.7-1.7,18.9,1-.9,1.8-1.8,2.6-2.7,1.4-1.6,3.3-1.3,4.2.7.3.7.7,1.5,1,2.2.8,1.8,1.7,3.6,2.6,5.5,1.5-.7,2.9-1.4,4.3-2-1.2-2.6-2.4-5.1-3.5-7.6-1-2.1,0-3.7,2.3-3.7,1.2,0,2.4,0,3.6-.1,0,0,0-.1,0-.2-5.2-3.6-10.3-7.2-15.5-10.9Z"/>
        </g>
      </g>
    </g>
  </g>
</svg>