<?xml version="1.0" encoding="UTF-8"?>
<svg xmlns="http://www.w3.org/2000/svg" version="1.1" viewBox="0 0 120 120">
  <defs>
    <style>
      .cls-1 {
        fill: #00a026;
      }
    </style>
  </defs>
  <!-- Generator: Adobe Illustrator 28.7.1, SVG Export Plug-In . SVG Version: 1.2.0 Build 142)  -->
  <g>
    <g id="Capa_1">
      <path class="cls-1" d="M60.1,1.3C27.7,1.3,1.4,27.6,1.4,60s26.3,58.7,58.7,58.7,58.7-26.3,58.7-58.7S92.5,1.3,60.1,1.3ZM92,41.3c-.2.3-.5.6-.8.8-13.2,13.3-26.5,26.5-39.7,39.8-.8.8-1.6,1.6-2.6,2h-1.3c-1-.3-1.7-1-2.5-1.7-5.2-5.3-10.5-10.5-15.8-15.8-.7-.7-1.4-1.5-1.7-2.5v-1.3c.4-.6.7-1.3,1.3-1.8,1.1-1,2.7-1,3.9,0,.3.2.5.4.8.7,4.7,4.7,9.4,9.4,14,14.1.2.2.3.4.6.7.2-.3.3-.6.5-.7,12.4-12.5,24.9-24.9,37.3-37.4.8-.8,1.6-1.6,2.7-2h1.3c1.3.4,2.2,1.1,2.6,2.5.2,1,0,1.9-.6,2.6Z"/>
    </g>
  </g>
</svg>