<?xml version="1.0" encoding="UTF-8"?>
<svg xmlns="http://www.w3.org/2000/svg" version="1.1" viewBox="0 0 120 120">
  <defs>
    <style>
      .cls-1 {
        fill: #fff;
      }

      .cls-2 {
        fill: #00a026;
        stroke: #e6e6e6;
        stroke-miterlimit: 10;
        stroke-width: 4px;
      }
    </style>
  </defs>
  <!-- Generator: Adobe Illustrator 28.7.1, SVG Export Plug-In . SVG Version: 1.2.0 Build 142)  -->
  <g>
    <g id="Capa_1">
      <circle class="cls-2" cx="60" cy="59.9" r="56.7"/>
      <g id="oYl68f">
        <g>
          <path class="cls-1" d="M95.9,62c-.2,1.4-.3,2.8-.6,4.2-.9,5.2-2.9,9.9-5.9,14.2,0,.1-.2.2-.4.5v-6.3h-7.7c.2-.3.3-.5.4-.7,6.4-9.8,5.4-22.6-2.4-31.4-.2-.3-.4-.7-.4-1,0-1.9,0-3.9,0-5.8,0-.2,0-.4,0-.7.2,0,.4,0,.6,0,2,0,3.9,0,5.9,0,.3,0,.7.2.9.4,5.3,5.7,8.4,12.4,9.3,20.1,0,.7.2,1.3.3,2v4.4Z"/>
          <path class="cls-1" d="M57.9,95.8c-1.4-.2-2.8-.3-4.2-.6-5.2-.9-9.9-2.9-14.2-5.9-.1-.1-.3-.2-.6-.5h6.4v-7.7c.5.3.9.5,1.2.8,9.6,6,22.2,4.8,30.7-2.7.3-.3.8-.4,1.2-.5,1.9,0,3.8,0,5.7,0,.2,0,.5,0,.7,0,0,.3,0,.5,0,.7,0,1.9,0,3.8,0,5.8,0,.3-.2.7-.4,1-5.7,5.3-12.4,8.4-20.1,9.3-.7,0-1.3.2-2,.3h-4.4Z"/>
          <path class="cls-1" d="M31,38.8v6.3h7.7c-.2.3-.3.5-.4.7-6.3,9.7-5.4,22.6,2.4,31.3.2.3.4.7.4,1.1,0,2.1,0,4.3,0,6.5h-.8c-1.8,0-3.7,0-5.5,0-.5,0-.8-.1-1.1-.5-5.2-5.8-8.4-12.5-9.2-20.2-1-8.8,1-16.9,6-24.3.1-.2.3-.4.4-.6,0,0,0-.1.3-.3Z"/>
          <path class="cls-1" d="M35.2,40.9c0-1.8.1-3.5,0-5.1-.1-1.5.4-2.4,1.5-3.3,5.7-4.7,12.2-7.6,19.5-8.4,8.9-.9,17.1,1.3,24.5,6.4,0,0,.1.1.3.3h-6.3v7.7c-.3-.2-.5-.2-.6-.4-9.9-6.4-22.6-5.4-31.4,2.4-.2.2-.5.4-.7.4-2.2,0-4.5,0-6.8,0Z"/>
          <path class="cls-1" d="M50.3,73.3c.2-1.4.5-2.7.7-4,.4-2.1.7-4.2,1.1-6.3,0-.5,0-.7-.3-1-2.3-2.2-4.6-4.4-6.9-6.6-.2-.2-.4-.3-.7-.4,0,0,.1-.2.2-.3,2-.3,4.1-.6,6.1-.9,1.4-.2,2.8-.4,4.2-.6.3,0,.6-.3.8-.6,1.4-2.8,2.8-5.7,4.2-8.5.1-.2.2-.5.4-.8.2.3.3.5.4.7,1.4,2.9,2.8,5.7,4.2,8.6.2.4.5.6.9.6,3.4.5,6.7.9,10.3,1.4-.2.3-.4.4-.6.6-2.3,2.2-4.6,4.5-6.9,6.7-.3.3-.4.5-.3,1,.6,3.2,1.1,6.3,1.7,9.5,0,.2,0,.4,0,.7-.3-.1-.4-.2-.6-.3-2.8-1.5-5.7-3-8.5-4.5-.4-.2-.8-.2-1.2,0-2.8,1.5-5.6,3-8.4,4.4-.2.1-.5.2-.8.4Z"/>
        </g>
      </g>
    </g>
  </g>
</svg>