<?xml version="1.0" encoding="UTF-8"?>
<svg xmlns="http://www.w3.org/2000/svg" version="1.1" viewBox="0 0 3401.6 1008">
  <defs>
    <style>
      .cls-1 {
        fill: none;
      }

      .cls-2 {
        fill: #3d9f36;
      }

      .cls-3 {
        fill: #14243b;
      }

      .cls-4 {
        fill: #daa91c;
      }

      .cls-5 {
        fill: #86898e;
      }

      .cls-6 {
        fill: #13283e;
      }
    </style>
  </defs>
  <!-- Generator: Adobe Illustrator 28.7.1, SVG Export Plug-In . SVG Version: 1.2.0 Build 142)  -->
  <g>
    <g id="Capa_1">
      <g>
        <g>
          <path class="cls-3" d="M1129.7,625.2l.7-433.3h162.1c119.5,0,235,66.3,235,212s-106.3,221.2-237.6,221.2h-160.2ZM1222.3,545.1h70.2c88.6,0,141.8-61.7,142.5-135.9.7-80.1-51.2-137.9-139.2-137.9h-73.5v273.7Z"/>
          <path class="cls-3" d="M1532,631.8l181.5-433.8c3.1-7.4,10.3-12.2,18.3-12.2h64.2c8,0,15.2,4.8,18.3,12.2l181.9,433.8h-110.8l-34.3-104h-173l-39.2,104h-106.8ZM1699.9,452.9l118-.7-53.4-144-64.6,144.8Z"/>
          <path class="cls-3" d="M2468.9,409.9c1.3-136.5,106.3-224.5,229.1-224.5s225.2,90.6,224.5,224.5c-1.3,130-99.8,221.9-225.2,221.9s-229.8-89.3-228.4-221.9ZM2830,409.9c-.7-86.7-57.8-144.4-132.6-144.4s-135.9,57.8-135.9,144.4c.7,82.1,60.4,141.8,135.9,141.8s131.9-59.1,132.6-141.8Z"/>
          <path class="cls-3" d="M2995,631.8V179h183.2c141.3,0,176.3,78.2,176.3,146.1s-26.1,125.5-105.6,138.6l-19.9.7,101.5,167.4h-107l-99.5-167.4h-32.9v167.4h-96ZM3091,384.8h87.1c51.4,0,79.6-17.1,79.6-59.7s-22.6-63.1-80.3-63.1h-86.4v122.8Z"/>
          <path class="cls-3" d="M2425,479.5h-89.5c-22.3,45.3-64.3,72.2-115.5,72.2-75.5,0-133.9-59.1-134.6-143.1,0-86,60.4-143.8,135.2-143.8s89.3,24.9,112.3,66.3h94.7s-7.1-21-15.2-37.4c-38.1-69.6-109-108.3-191.7-108.3-122.1,0-226.5,88-227.8,223.2-1.3,133.9,104.4,223.2,227.1,223.2s164.5-41.9,195-117c3.5-8.5,10-30.5,10-35.3Z"/>
        </g>
        <g>
          <path class="cls-5" d="M1142.6,880.5h23c1.1,24.9,26.2,33.1,41.3,33.1s37.8-7.1,38.3-27.8c.8-20.1-13.2-28.8-42.8-33.8-38.1-5.6-62.1-20.9-62.1-50.5s26.4-47.9,59.5-47.9,63.2,19.3,64,52.6h-23c-1.1-23.3-21.9-32.8-41-32.8s-35.4,9.8-35.4,28.6c-.3,15.6,12.7,25.6,40.5,30.1,43.4,6.9,65.6,23,64.5,55.3-1.3,33.1-31.5,46.5-63.2,46-33.6-.5-62.1-19-63.5-52.9Z"/>
          <path class="cls-5" d="M1386.7,844.3c.3-52.9,40.7-90.7,90.7-90.7s89.6,38.3,89.4,90.7c0,51.3-39.4,89.1-89.6,89.1s-90.7-37-90.4-89.1ZM1541.6,844.3c.3-41.3-29.1-68.8-64-68.8s-65.8,27.8-65.8,68.8c.3,38.3,30.1,67.2,65.3,67.2s64.3-28.6,64.5-67.2Z"/>
          <path class="cls-5" d="M1694.7,930.7v-174.5h24.9v152.6h91v22h-115.8Z"/>
          <path class="cls-5" d="M1930.8,864.9v-108.7h24.9v106.8c0,28,15.6,48.4,45.5,48.4s44.7-20.4,44.7-48.4v-106.8h24.9v108.7c0,40.7-27.2,68.5-69.8,68.5s-70.1-27.2-70.1-68.5Z"/>
          <path class="cls-5" d="M2255.8,930.7l.5-152.6-55.8-.3v-21.7h136.7v21.7l-56.1.3-.5,152.6h-24.9Z"/>
          <path class="cls-5" d="M2468.6,930.7v-174.5h23.8v174.5h-23.8Z"/>
          <path class="cls-5" d="M2621.9,844.3c.3-52.9,40.7-90.7,90.7-90.7s89.6,38.3,89.4,90.7c0,51.3-39.4,89.1-89.6,89.1s-90.7-37-90.4-89.1ZM2776.8,844.3c.3-41.3-29.1-68.8-64-68.8s-65.8,27.8-65.8,68.8c.3,38.3,30.1,67.2,65.3,67.2s64.3-28.6,64.5-67.2Z"/>
          <path class="cls-5" d="M2939.1,930.7v-174.5h23l90.4,133.3v-133.3h25.1v174.5h-22.5l-91.2-132.5v132.5h-24.9Z"/>
          <path class="cls-5" d="M3217.2,880.5h23c1.1,24.9,26.2,33.1,41.2,33.1s37.8-7.1,38.3-27.8c.8-20.1-13.2-28.8-42.8-33.8-38.1-5.6-62.1-20.9-62.1-50.5s26.4-47.9,59.5-47.9,63.2,19.3,64,52.6h-23c-1.1-23.3-21.9-32.8-41-32.8s-35.4,9.8-35.4,28.6c-.3,15.6,12.7,25.6,40.5,30.1,43.4,6.9,65.6,23,64.5,55.3-1.3,33.1-31.5,46.5-63.2,46-33.6-.5-62.1-19-63.5-52.9Z"/>
        </g>
        <path class="cls-2" d="M516.3,961.6c226.4-23.1,403.1-214.4,403.1-446.9s-50.3-236.4-131.6-317.7l-491.5,491.5s105.9,3.7,173.2-37.8l272.9-231.4s149.1,339-226.1,542.3Z"/>
        <path class="cls-4" d="M737.9,156c-74.8-56.2-167.8-89.5-268.6-89.5-247.2,0-429.6,190.7-438.8,400.3,0,0,158.2-402.1,545.8-228.1l-76.5,130.5,238.1-213.2"/>
        <path class="cls-1" d="M737.9,156"/>
        <path class="cls-6" d="M384.2,952.5c-172.1-35.2-308.2-169.2-346.6-340.1,0,0,66-260.4,386.4-270.2,0,0-359,261.3-193.2,425.2,145.7,144.1,377.1-83.1,377.1-83.1,0,0-2.5,174.5-223.7,268.2Z"/>
      </g>
    </g>
  </g>
</svg>