<?xml version="1.0" encoding="UTF-8"?>
<svg xmlns="http://www.w3.org/2000/svg" version="1.1" viewBox="0 0 120 120">
  <defs>
    <style>
      .cls-1 {
        fill: #daa91c;
      }
    </style>
  </defs>
  <!-- Generator: Adobe Illustrator 28.7.1, SVG Export Plug-In . SVG Version: 1.2.0 Build 142)  -->
  <g>
    <g id="Capa_1">
      <g id="YQgbF4.tif">
        <path class="cls-1" d="M60,118.6c-32.7,0-58.9-26.2-58.8-58.9C1.2,27,27.5.8,60.1.9c32.7,0,58.7,26.2,58.8,58.8,0,32.6-26.2,58.9-58.8,58.9ZM92,42.6c-.7.5-1.2.8-1.6,1.1-7.7,5.4-15.4,10.9-23.1,16.3-4.8,3.4-9.9,3.4-14.7,0-7.7-5.5-15.4-10.9-23.1-16.4-.5-.3-1-.6-1.6-1.1,0,.7,0,1.2,0,1.7,0,10.9,0,21.7,0,32.6,0,4.4,2.2,6.6,6.6,6.6,17.1,0,34.1,0,51.2,0,4.3,0,6.5-2.2,6.5-6.5,0-11,0-21.9,0-32.9,0-.4,0-.9,0-1.6ZM28.9,38.4c.5.4.8.6,1.2.9,8.2,5.8,16.3,11.6,24.5,17.4,3.8,2.7,6.9,2.7,10.7,0,8.2-5.8,16.4-11.6,24.6-17.5.4-.3.7-.6,1.1-.9-1.3-1.9-3.1-2.5-5.2-2.5-9.7,0-19.4,0-29.1,0-7.5,0-15.1,0-22.6,0-2.1,0-3.9.6-5.2,2.5Z"/>
      </g>
    </g>
  </g>
</svg>