<?xml version="1.0" encoding="UTF-8"?>
<svg xmlns="http://www.w3.org/2000/svg" version="1.1" viewBox="0 0 120 120">
  <defs>
    <style>
      .cls-1 {
        fill: #daa91c;
      }
    </style>
  </defs>
  <!-- Generator: Adobe Illustrator 28.7.1, SVG Export Plug-In . SVG Version: 1.2.0 Build 142)  -->
  <g>
    <g id="Capa_1">
      <path class="cls-1" d="M1,59.8C1,27.4,27.5.3,61.2,1c32.4.6,58.2,27.6,57.6,60.1-.6,31.2-26.4,58.4-60.3,57.7C26.5,118.1.9,91.9,1,59.8ZM52.6,46.7v41.5h12.2v-1.7c0-6.9,0-13.7,0-20.6,0-1.5.3-3.1.9-4.6,1.1-3,4.2-4.7,7.6-4.4,3.3.3,5.3,2,6.1,5.4.3,1.3.5,2.6.5,3.9,0,6.8,0,13.5,0,20.3,0,.5,0,1,0,1.6h12.6c0-.2,0-.4,0-.5,0-9.2,0-18.5,0-27.7,0-3.3-1-6.5-3-9.2-5.4-7.3-17.6-7.3-23.5,0-.3.4-.6.8-.9,1.1h-.3v-5.3h-12.2ZM31.4,46.7v41.6h12.6v-41.6h-12.6ZM30.1,33.4c0,4.2,3.4,7.7,7.5,7.7,4.1,0,7.6-3.5,7.6-7.7,0-4.1-3.4-7.6-7.5-7.7-4.1,0-7.6,3.4-7.6,7.6Z"/>
    </g>
  </g>
</svg>