<?xml version="1.0" encoding="UTF-8"?>
<svg xmlns="http://www.w3.org/2000/svg" version="1.1" viewBox="0 0 120 120">
  <defs>
    <style>
      .cls-1 {
        fill: #daa91c;
      }
    </style>
  </defs>
  <!-- Generator: Adobe Illustrator 28.7.1, SVG Export Plug-In . SVG Version: 1.2.0 Build 142)  -->
  <g>
    <g id="Capa_1">
      <path class="cls-1" d="M56.6.8c2.3,0,4.6,0,6.9,0,1.5.2,3,.3,4.5.5,11.7,1.7,22.1,6.3,30.9,14.2,10.2,9.1,16.6,20.5,19,34,.4,2.2.6,4.4.9,6.7v6.9c-.2,1.5-.3,3-.6,4.5-2,13.9-8.1,25.7-18.4,35.3-8.5,7.8-18.4,12.7-29.8,14.7-2.2.4-4.4.6-6.6.9h-6.9c-.4,0-.7-.2-1.1-.2-2.2-.3-4.3-.5-6.5-.9-12.9-2.5-23.7-8.6-32.5-18.3-7.7-8.4-12.5-18.3-14.4-29.5-.4-2.2-.6-4.4-.9-6.6,0-2.3,0-4.6,0-6.9,0-.4.2-.8.2-1.2.3-2.1.5-4.3.9-6.4,2.5-12.9,8.6-23.7,18.3-32.5C28.9,8.4,38.8,3.6,50,1.7c2.2-.4,4.4-.6,6.6-.9ZM29.1,43.1c0,4.3,1.1,7.3,2.3,10.2,3.2,7.5,7.9,14,13.7,19.8,7.6,7.6,16.2,13.5,26.6,16.5,3.9,1.1,7.7.8,11.4-1,2.7-1.3,4.7-3.5,6.8-5.6,1.5-1.5,1.5-2.8,0-4.3-3.4-3.4-6.8-6.8-10.2-10.2-1.5-1.5-2.8-1.5-4.4,0-1.8,1.8-3.6,3.7-5.5,5.6-2.3,2.3-4.9,2.5-7.5.6-6.6-4.7-12.3-10.3-17.1-16.8-2-2.7-1.8-5.3.5-7.7,1.9-2,3.9-3.9,5.8-5.9,1.3-1.4,1.3-2.7,0-4-3.5-3.5-7-7.1-10.6-10.6-1.3-1.3-2.6-1.3-3.9,0-1.3,1.3-2.6,2.6-3.9,3.9-2.7,2.9-4,6.4-4.1,9.4Z"/>
    </g>
  </g>
</svg>