<?xml version="1.0" encoding="UTF-8"?>
<svg xmlns="http://www.w3.org/2000/svg" version="1.1" viewBox="0 0 120 120">
  <defs>
    <style>
      .cls-1 {
        fill: #3d9f36;
        stroke: #e6e6e6;
        stroke-miterlimit: 10;
        stroke-width: 7px;
      }

      .cls-2 {
        fill: #fff;
      }
    </style>
  </defs>
  <!-- Generator: Adobe Illustrator 28.7.1, SVG Export Plug-In . SVG Version: 1.2.0 Build 142)  -->
  <g>
    <g id="Capa_1">
      <circle class="cls-1" cx="60" cy="59.8" r="54.8"/>
      <g id="KZOLKd">
        <path class="cls-2" d="M26.5,59.6c0-18.5,15.2-33.4,33.7-33.3,18.3,0,33.3,15.2,33.3,33.6s-15.2,33.6-33.9,33.5c-18.3-.1-33.2-15.3-33.1-33.7ZM50.6,50c5-4.1,10.5-5.1,16.4-1.6,4.1,2.5,6.1,6.2,6.4,11.1-1.7.1-3.1.2-4.9.3,2.6,3.4,5,6.4,7.5,9.7,2.5-3.3,4.9-6.4,7.5-9.7-1.9,0-3.4-.2-4.8-.3-.9-8.9-5.1-15-13.6-17.5-6.8-2-12.9-.4-18.4,4.7,1.3,1.1,2.5,2.1,3.9,3.3ZM36.8,59.3c0,.3,0,.5-.1.8,4.2-1.3,4.7,1.1,5.4,4.2,1.7,7.3,6.5,11.9,13.9,13.6,6.5,1.5,12.2-.2,17-4.7-1.1-1.4-2.1-2.6-3.2-3.9-5,4.2-10.4,5.3-16,2.3-4.4-2.3-6.8-6.2-7.1-11.4,1.6-.2,3.1-.3,4.8-.5-2.6-3.3-5-6.4-7.5-9.6-2.6,3.3-4.9,6.2-7.2,9.2Z"/>
      </g>
    </g>
  </g>
</svg>