<?xml version="1.0" encoding="UTF-8"?>
<svg xmlns="http://www.w3.org/2000/svg" version="1.1" viewBox="0 0 120 120">
  <defs>
    <style>
      .cls-1 {
        fill: #3d9f36;
        stroke: #e6e6e6;
        stroke-miterlimit: 10;
        stroke-width: 7px;
      }

      .cls-2 {
        fill: #fff;
      }
    </style>
  </defs>
  <!-- Generator: Adobe Illustrator 28.7.1, SVG Export Plug-In . SVG Version: 1.2.0 Build 142)  -->
  <g>
    <g id="Capa_1">
      <circle class="cls-1" cx="60.1" cy="59.6" r="54.8"/>
      <g>
        <path class="cls-2" d="M55.2,92.9c-.1,0-.2,0-.3,0-.9-.2-2.2-.2-2.7-.8-.5-.5-.2-1.8-.2-2.7s0-1.9,0-2.8c0-.3-.3-.6-.5-.8-.5-.3-1.1-.3-1.5-.6-1-.6-1.5-.3-2.3.4-1.1,1.2-2.4,2.2-3.7,3.3-.6-.4-1.4-.9-2.4-1.6.6-1.6,1.2-3.2,1.9-4.7.4-.8.4-1.4-.4-1.9-.6-.4-1.2-1.1-1.8-1.7-1.6.8-3.3,1.5-4.9,2.3-.6.3-.9.3-1.3-.3-.4-.7-.9-1.3-1.4-2,1.3-1.3,2.5-2.7,3.8-4,.4-.4.6-.8.2-1.3,0-.1-.2-.3-.3-.5-.3-.7-.5-1.6-1.1-1.9-.6-.3-1.5,0-2.2,0-1.3,0-2.5.2-3.9.3-.2-.9-.5-1.8-.7-2.6,0-.2.2-.7.5-.8,1.4-.7,2.9-1.5,4.3-2.1.5-.2.7-.6.6-1.1,0-.7-.2-1.5-.2-2.2s-.2-.7-.6-.8c-1.5-.4-3.1-.9-4.6-1.4-.3,0-.5-.2-.7-.3,0,0,0-.2,0-.2.2-3,.2-3,3.2-3.2.9,0,1.8-.2,2.7-.2.5,0,.7-.2.9-.7.1-.7.3-1.3.6-1.9.3-.7,0-1.1-.5-1.5-1.2-.9-2.4-1.9-3.7-2.8-.4-.3-.5-.5-.2-1q1.1-2.4,3.6-1.7c1.1.3,2.1.6,3.2.9.2,0,.6,0,.7-.2.7-.8,1.3-1.6,1.9-2.5-1-1.7-2.1-3.5-3.2-5.3.8-.7,1.6-1.4,2.4-2.2,1.7,1.3,3.3,2.5,5,3.7.9-.6,1.9-1.1,2.7-1.7.2-.1.3-.6.2-.9-.3-1.8-.6-3.6-.9-5.4,1-.4,2-.8,3-1.2.9,1.5,1.9,3,2.8,4.5.4.7.8.9,1.5.6.2,0,.4,0,.6-.1q2-.4,2.3-2.4c.2-1.2.5-2.4.7-3.6,0-.1,0-.3.1-.5h3.1c1.2,4,1.4,8,1.2,12.1-5.8-.7-11.1.8-15.5,4.8-3.3,3-5.4,6.7-6.1,11-1.4,9.1,3.3,17.5,11.7,21,7.9,3.3,17.5.6,22.5-6.4,5.2-7.1,5.3-17.3-1.7-24.7,0-.2.3-.3.3-.5.5-1.6,1.7-1.6,3.1-1.7,2-.2,3.4.4,4.2,2.3.2.5.5.5,1,.4,1.6-.4,3.1-.7,4.7-1.1.5-.1.8,0,1,.5.3.8.6,1.5,1,2.3-1.5,1-2.9,2.1-4.4,3-.6.4-.9.8-.5,1.5.2.4.3.9.3,1.3,0,1.1.6,1.4,1.6,1.5,1.6.1,3.2.4,4.9.6,0,1.1.1,2.1.2,3.2-1.8.4-3.5.9-5.2,1.3-.7.2-1,.5-1,1.2,0,.2,0,.4,0,.6q-.3,2,1.5,3c1.2.6,2.4,1.3,3.6,2-.3,1-.6,2-1,3.1-1.8-.2-3.7-.4-5.4-.7-.6,0-.9,0-1.1.6-.4.9-.9,1.7-1.4,2.5,1.3,1.6,2.6,3.2,4,4.8-.7.8-1.3,1.6-2,2.5-1.7-.9-3.3-1.7-4.9-2.6-.5-.3-.8-.2-1.2.2-.2.3-.5.5-.7.7q-1.4,1.2-.8,3.1c.5,1.3.9,2.6,1.4,4-.9.5-1.8,1.1-2.8,1.6-1.2-1.4-2.4-2.7-3.5-4.1-.4-.5-.8-.7-1.4-.4-.3.2-.6.2-.8.3q-1.8.6-1.8,2.5c0,1.2,0,2.5-.1,3.7,0,.4-.1.7-.6.7-.8,0-1.9.6-2.5.2-.6-.3-.7-1.5-1-2.2-.4-1-.7-2-1.1-2.9,0-.2-.5-.5-.8-.5-.7,0-1.4,0-2,0-.8-.2-1.2.2-1.4.9-.6,1.7-1.3,3.2-2,4.8Z"/>
        <path class="cls-2" d="M68.3,51.1c.7-1.5,1.3-2.9,1.9-4.4.4-1,.1-1.3-.9-1.3h-1.7c-2,0-3.5-1.5-3.5-3.5,0-4.2,0-8.3,0-12.5,0-2,1.5-3.5,3.5-3.5,6.5,0,13,0,19.6,0,2,0,3.5,1.5,3.5,3.5,0,4.1,0,8.2,0,12.3,0,2.1-1.6,3.6-3.7,3.6-3.9,0-7.8,0-11.6,0-.8,0-1.2.3-1.5,1-1,2.2-2.6,3.9-5.1,4.6-.2,0-.3,0-.5,0Z"/>
        <path class="cls-2" d="M72.4,73.5h-24.5c0-4,1.1-7.6,3.6-10.7,1-1.2,2.3-2.2,3.5-3.2.4-.4.8-.3,1.4,0,2.4,1.6,4.9,1.6,7.3,0,.6-.4,1-.4,1.6,0,3.6,2.3,5.5,5.6,6.4,9.5.4,1.4.5,2.8.7,4.3Z"/>
        <path class="cls-2" d="M54.1,53.9c0-3.3,2.7-6,6-6.1,3.4,0,6.1,2.7,6.1,6s-2.7,6.1-6.1,6.1c-3.4,0-6-2.6-6-6.1Z"/>
      </g>
    </g>
  </g>
</svg>