<?xml version="1.0" encoding="UTF-8"?>
<svg xmlns="http://www.w3.org/2000/svg" version="1.1" viewBox="0 0 120 120">
  <defs>
    <style>
      .cls-1 {
        fill: #3d9f36;
        stroke: #e6e6e6;
        stroke-miterlimit: 10;
        stroke-width: 7px;
      }

      .cls-2 {
        fill: #fff;
      }
    </style>
  </defs>
  <!-- Generator: Adobe Illustrator 28.7.1, SVG Export Plug-In . SVG Version: 1.2.0 Build 142)  -->
  <g>
    <g id="Capa_1">
      <circle class="cls-1" cx="60.2" cy="59.8" r="54.8"/>
      <g id="yjjmV5">
        <g>
          <path class="cls-2" d="M41.2,55.8c.3-10.2,8.8-18.2,18.2-18.5v6.7c0,.9.5,1.3,1.4,1,1.1-.4,2.1-.1,2.7.8.6.8.6,1.9,0,2.7-.6.9-1.7,1.1-2.8.7-.8-.3-1.4,0-1.4.9v5.7c-.2,0-.4,0-.5,0h-5.1c-.9,0-1.3.5-1,1.4.4,1,.1,2.1-.7,2.7s-1.9.6-2.7,0c-.9-.6-1.2-1.7-.8-2.7.3-.9,0-1.4-1-1.4h-5.8c-.2,0-.4,0-.6,0Z"/>
          <path class="cls-2" d="M54.7,57.6h4.6v5.6c0,1,.5,1.4,1.4,1,1-.4,2.1-.1,2.7.7.6.8.6,1.9,0,2.7-.6.8-1.7,1.1-2.7.7-.9-.3-1.4,0-1.4,1v6.1c-.2,0-.4,0-.5,0h-11c-.4,0-.5,0-.5-.5-.2-2.7-1.2-5.1-2.7-7.3-2-2.9-3.2-6.2-3.4-9.7v-.4s0,0,0-.1h5.3c0,1.4.4,2.6,1.4,3.5.8.7,1.7,1,2.8,1,2.3,0,3.8-1.7,4-4.5Z"/>
          <path class="cls-2" d="M79.4,55.7h-6.4c-.9,0-1.3.6-1,1.4.4,1,.1,2.1-.7,2.7-.8.6-1.9.6-2.8,0-.8-.6-1.1-1.7-.7-2.7.3-.8,0-1.4-.9-1.4h-5.6v-4.6c1.4,0,2.6-.4,3.5-1.4.6-.8,1-1.7,1-2.7s-.5-2.2-1.4-3c-.7-.7-1.1-.8-3.2-1.1v-5.7c4.5.3,8.4,1.9,11.8,5,4,3.6,6,8.1,6.4,13.5Z"/>
          <path class="cls-2" d="M79.4,57.6c-.2,1.2-.3,2.4-.6,3.5-.5,2.5-1.6,4.8-3,6.9-1.5,2.1-2.3,4.4-2.6,7,0,.2,0,.4,0,.6h-12v-5.1c1.5,0,2.7-.4,3.7-1.6.6-.8.9-1.7.8-2.7-.1-2.3-1.6-3.6-4.5-3.9v-4.5h4.6c0,1.5.5,2.8,1.7,3.7.8.6,1.7.8,2.6.8,2.4-.2,3.8-1.7,4-4.5h5.4Z"/>
          <path class="cls-2" d="M73.2,89.8h-26v-5.3h26v5.3Z"/>
          <path class="cls-2" d="M73.2,82.6h-25.9v-.5c0-1.4,0-2.9,0-4.3s.1-.4.5-.4h24.8c.4,0,.5.1.5.5,0,1.4,0,2.8,0,4.2,0,.2,0,.3,0,.5Z"/>
          <path class="cls-2" d="M52.5,91.7h15.4c0,0,0,.2,0,.2-.3,1.4-.9,2.7-2,3.6-.5.4-1,.5-1.5.5-2.8,0-5.5,0-8.3,0-.5,0-1-.2-1.4-.5-1.3-.9-1.9-2.3-2.1-3.9Z"/>
          <path class="cls-2" d="M83.3,40.6c-.9,0-1.4-.3-1.7-.9-.3-.6-.3-1.2.2-1.7,1-1.2,2-2.4,3-3.6.2-.2.4-.4.5-.6.6-.6,1.6-.7,2.2-.2.7.5.8,1.5.3,2.2-1.2,1.5-2.4,2.9-3.7,4.3-.2.3-.7.4-.9.5Z"/>
          <path class="cls-2" d="M46.3,26.1c.7,0,1.2.4,1.5,1,.6,1.7,1.3,3.4,1.9,5.1.3.9-.1,1.7-1,2.1-.8.3-1.7,0-2.1-1-.6-1.7-1.3-3.4-1.9-5.1-.4-1.1.4-2.1,1.5-2.1Z"/>
          <path class="cls-2" d="M74.1,26.1c1.2,0,1.9,1.1,1.6,2.1-.6,1.7-1.2,3.5-1.9,5.2-.3.8-1.2,1.2-2,.9-.8-.3-1.3-1.1-1-2,.6-1.8,1.3-3.6,1.9-5.3.2-.6.8-.9,1.4-1Z"/>
          <path class="cls-2" d="M37.2,40.6c-.2-.1-.7-.3-.9-.6-1.2-1.4-2.4-2.8-3.6-4.2-.6-.7-.5-1.7.2-2.3.7-.6,1.7-.5,2.3.3,1.2,1.4,2.3,2.7,3.4,4.1.5.5.5,1.2.3,1.8-.3.6-.8.9-1.7.9Z"/>
          <path class="cls-2" d="M58.6,28v-2.7c0-1,.7-1.7,1.6-1.7.9,0,1.6.7,1.6,1.7v5.3c0,1-.7,1.7-1.6,1.7s-1.6-.7-1.6-1.7c0-.9,0-1.7,0-2.6Z"/>
        </g>
      </g>
    </g>
  </g>
</svg>