<?xml version="1.0" encoding="UTF-8"?>
<svg xmlns="http://www.w3.org/2000/svg" version="1.1" viewBox="0 0 120 120">
  <defs>
    <style>
      .cls-1 {
        fill: #fff;
      }
    </style>
  </defs>
  <!-- Generator: Adobe Illustrator 28.7.1, SVG Export Plug-In . SVG Version: 1.2.0 Build 142)  -->
  <g>
    <g id="Capa_1">
      <g id="_x31_Bknlm">
        <g>
          <path class="cls-1" d="M13.4,80c-1.2-4.1-2.3-7.8-3.5-11.7-1.3,0-2.8,0-4.4,0-2.7,0-4.4-1.8-4.4-4.4,0-2.7,0-5.3,0-8,0-2.6,1.8-4.3,4.4-4.3,1.5,0,3,0,4.7,0,1.3-7.5,4.1-14.4,8.8-20.9-1.1-1-2.2-1.9-3.3-2.9-2.1-2.1-2.1-4.4,0-6.5,1.8-1.8,3.6-3.6,5.4-5.4,2-2,4.3-2,6.4,0,1.1,1,2.1,2.1,3.2,3.3,6.3-4.4,13.2-7.3,20.8-8.6,0-1.5,0-2.9,0-4.4,0-3,1.7-4.7,4.7-4.7,2.5,0,5.1,0,7.6,0,2.7,0,4.4,1.8,4.4,4.4,0,1.5,0,3,0,4.6,7.5,1.3,14.4,4.2,20.9,8.7,1-1.1,2-2.3,3-3.4,2-2,4.3-1.9,6.3,0,1.8,1.8,3.6,3.6,5.5,5.5,2,2,2,4.3,0,6.3-1,1.1-2.2,2-3.3,3.1,4.5,6.4,7.3,13.3,8.7,20.9,1.5,0,3,0,4.6,0,2.8,0,4.5,1.7,4.5,4.5,0,2.6,0,5.2,0,7.8,0,2.7-1.8,4.4-4.5,4.4-1.5,0-3,0-4.4,0-1.2,3.9-2.3,7.7-3.4,11.4-.1,0-.3,0-.4,0-.4-.9-.8-1.8-1.3-2.7-1.7-3.3-3.9-6.2-6.6-8.7-.8-.7-1-1.4-.9-2.5,2.1-16.1-3.6-28.9-17.2-37.8-22.4-14.6-53.1-.5-57.1,25.8-.6,4.2-.6,8.3,0,12.5,0,.4,0,1.1-.4,1.3-3.6,3.3-6.4,7.1-8.3,11.6,0,.1-.1.2-.5.7Z"/>
          <path class="cls-1" d="M94.1,112c-5.5,4.5-11.6,6.7-18.6,6.5-13.2-.3-24.7-10.8-26.1-23.9-1.6-14.7,8-27.6,22.6-30.2,14.9-2.7,29.7,8.4,31.3,23.5.1,1.4.2,2.8.2,4.2,0,7.6,0,15.2,0,22.9,0,1.3.3,2.7-1.3,3.3-1.6.6-2.4-.6-3.3-1.5-1.6-1.6-3.2-3.2-4.9-4.8ZM86.8,84.9c0-6.8-6.6-11.8-13.2-10-4.5,1.2-7.8,5.5-7.7,9.9,0,1.3.8,2.2,2,2.3,1.2,0,2-.8,2.2-2.1,0-.2,0-.3,0-.5.3-3,2.7-5.4,5.7-5.7,3.1-.3,5.8,1.7,6.6,4.8.8,3.1-.8,6-4,7.4-3,1.3-4.3,3.4-4.1,6.4,0,1.3.9,2.2,2.1,2.3,1.2,0,2.1-.9,2.1-2.2,0-1.5.6-2.3,2-2.8,4-1.7,6.5-5.5,6.4-9.8ZM76.4,108c1.1,0,2.1-.9,2.1-2.1,0-1.1-.9-2.1-2.1-2.1-1.1,0-2.1.9-2.1,2.1,0,1.1.9,2.1,2.1,2.1Z"/>
          <path class="cls-1" d="M92.7,64.4c-1.6-.8-3.2-1.6-4.8-2.2-9.3-3.5-18.4-2.9-27.1,2-.7.4-1.2.6-2,.1-10.4-5.9-20.9-5.9-31.4-.2-.2.1-.5.2-.7.3-3-8,2.7-22.9,11.6-30.2,11-9.1,26.5-10.3,38.7-2.9,13.3,8.1,17.6,22.7,15.8,33.1Z"/>
          <path class="cls-1" d="M45.1,87.1v8.4c-.4,0-.9,0-1.3,0-5.1,0-10.1,0-15.2,0-1.5,0-2.5.8-2.5,2.1,0,1.3.9,2,2.5,2.1.3,0,.6,0,.9,0,5.1,0,10.1,0,15.2,0,1.1,0,1.5.3,1.8,1.3,1.6,5,4.3,9.3,8.1,12.9.4.4.9.7,1.3,1.1-7.3,4.5-20.3,5.7-30.8-3-1.8,1.8-3.6,3.6-5.4,5.4-.8.8-1.6,1.4-2.8.9-1.2-.5-1.3-1.5-1.3-2.6,0-8.1,0-16.1,0-24.2,0-15.8,12.8-28.1,28.7-27.4,3.9.2,9,1.7,11.7,3.5-.4.3-.9.5-1.2.9-3.9,3.7-6.7,8.1-8.3,13.2-.3.9-.7,1.2-1.6,1.2-5.4,0-10.8,0-16.2,0-1.1,0-2,.3-2.4,1.4-.5,1.4.6,2.7,2.3,2.8,5,0,10,0,15,0,.5,0,.9,0,1.5,0Z"/>
        </g>
      </g>
    </g>
  </g>
</svg>