<?xml version="1.0" encoding="UTF-8"?>
<svg xmlns="http://www.w3.org/2000/svg" version="1.1" viewBox="0 0 120 120">
  <defs>
    <style>
      .cls-1 {
        fill: #fff;
      }
    </style>
  </defs>
  <!-- Generator: Adobe Illustrator 28.7.1, SVG Export Plug-In . SVG Version: 1.2.0 Build 142)  -->
  <g>
    <g id="Capa_1">
      <g id="SI4SUV.tif">
        <g>
          <path class="cls-1" d="M1.1,95.4c.2-.8.4-1.6.6-2.4,1.9-6.1,7.4-10.4,13.8-10.4,5.6,0,11.2,0,16.8,0,.3,0,.7,0,1.1,0,0,.4-.2.7-.2,1-.3,1.9-.7,3.8-.7,5.8,0,5.8,0,11.7,0,17.5,0,3.2,0,6.3,2.1,9.1H13.8v-22.9h-4.2v22.8c-.8-.3-1.5-.5-2.2-.8-3.2-1.5-5.2-4-6-7.4,0-.2-.1-.4-.2-.6,0-3.9,0-7.8,0-11.7Z"/>
          <path class="cls-1" d="M30.5,56.8c-1.5-.4-2.9-1-4.4-1.2-5.6-.9-11,2-13.3,7.2-.3.8-.7,1.2-1.6,1-.4,0-.8,0-1.1,0-1.8,0-2.6-.8-2.6-2.6,0-3.9,0-7.8,0-11.7,0-1.8.7-2.5,2.5-2.5,3.3,0,6.6,0,10,0,.6,0,1,0,1.2-.8,1-4.4,2.8-8.5,5.4-12.5-1-1-2.1-2-3.1-3-1.6-1.6-3.2-3.2-4.8-4.8-1.1-1.2-1.1-2.2,0-3.4,2.8-2.8,5.6-5.6,8.3-8.3,1.3-1.3,2.4-1.2,3.7,0,2.5,2.5,5.1,5.1,7.4,7.5,3-1.4,5.8-2.7,8.6-3.9,1.3-.5,2.6-.9,3.9-1.2.8-.2.9-.5.9-1.3,0-3.2,0-6.4,0-9.6,0-2.1.7-2.8,2.7-2.8,3.7,0,7.5,0,11.2,0,2.2,0,2.8.6,2.8,2.8,0,3.2,0,6.4,0,9.6,0,.4.3,1,.6,1.1,4.5,1.1,8.7,2.9,12.6,5.4,2.5-2.5,5-5,7.5-7.5,1.5-1.5,2.5-1.5,4.1,0,2.6,2.6,5.2,5.2,7.9,7.9,1.4,1.5,1.5,2.4,0,3.9-2.5,2.5-5,5-7.6,7.5.7,1.3,1.5,2.3,1.9,3.5,1.2,2.9,2.3,5.8,3.3,8.8.3.8.5,1.1,1.4,1.1,3.2,0,6.4,0,9.6,0,2,0,2.7.7,2.7,2.7,0,3.8,0,7.6,0,11.5,0,1.9-.8,2.6-2.7,2.7,0,0-.2,0-.2,0-1.4.2-2.1-.3-2.8-1.6-2.9-5.9-10-8.3-16-5.7-.4.2-.8.4-1.3.6.2-9.6-3.1-17.6-10.3-23.8-5.8-5-12.5-7.3-20.1-7.1-16.2.6-29,14.1-28.3,30.7Z"/>
          <path class="cls-1" d="M74.5,116.1v-29.3h-4.2v29.2h-21v-29.2h-4.2v29.1c-4.3,1.1-8.3-1.6-8.4-5.8-.1-7.6-.2-15.2.1-22.8.3-6.7,6.2-12.6,13-12.9,6.3-.3,12.6-.3,18.9,0,8.1.3,13.9,6.4,14.1,14.5.1,7,0,14,0,21,0,3.9-2.7,6.3-6.6,6.4-.5,0-1.1,0-1.8,0Z"/>
          <path class="cls-1" d="M70.8,65.9c2.7-7.4,1.4-12.8-3.7-16.5-4.4-3.2-10.6-3.1-14.9.2-4.9,3.8-6.1,9.3-3.4,16.2-.3,0-.6,0-.9,0-3.3,0-6.6,0-10,0-.8,0-1.1-.3-1.4-1-6.1-14.2,2.6-30.9,17.8-34.1,14.5-3.1,28.2,6.4,30.4,21.1.7,4.6,0,9-1.8,13.2-.1.3-.6.7-.9.7-3.7,0-7.4,0-11.2,0Z"/>
          <path class="cls-1" d="M110.1,115.8c0-3.8,0-7.6,0-11.3s0-7.5,0-11.3h-4.1v22.8h-20.6c.5-1.5,1.1-3.1,1.6-4.7.2-.7.2-1.4.2-2.2,0-6.5,0-13,0-19.5,0-2.3-.5-4.6-.7-7,.3,0,.7,0,1.2,0,5.3,0,10.7,0,16,0,8.6,0,15,6.4,15,15,0,3.4.1,6.7-.3,10.1-.5,4.1-4.3,7.7-8.1,8.1Z"/>
          <path class="cls-1" d="M103.8,67.9c0,4.6-3.7,8.4-8.4,8.4-4.6,0-8.4-3.7-8.4-8.4,0-4.6,3.7-8.4,8.3-8.4,4.6,0,8.4,3.7,8.4,8.4Z"/>
          <path class="cls-1" d="M32.6,68c0,4.6-3.8,8.4-8.4,8.3-4.6,0-8.4-3.8-8.3-8.4,0-4.6,3.8-8.4,8.4-8.3,4.6,0,8.3,3.8,8.3,8.4Z"/>
          <path class="cls-1" d="M59.8,51.2c4.6,0,8.4,3.8,8.4,8.4,0,4.6-3.8,8.4-8.4,8.4-4.6,0-8.4-3.8-8.4-8.4,0-4.6,3.8-8.4,8.4-8.4Z"/>
        </g>
      </g>
    </g>
  </g>
</svg>