<?xml version="1.0" encoding="UTF-8"?>
<svg xmlns="http://www.w3.org/2000/svg" version="1.1" viewBox="0 0 120 120">
  <defs>
    <style>
      .cls-1 {
        fill: #fff;
      }
    </style>
  </defs>
  <!-- Generator: Adobe Illustrator 28.7.1, SVG Export Plug-In . SVG Version: 1.2.0 Build 142)  -->
  <g>
    <g id="Capa_1">
      <g id="iwfhyU">
        <g>
          <path class="cls-1" d="M63.7,118.5c-.4-.8-1-1.5-1.2-2.4-1.5-7-3-14.1-4.5-21.1-.2-1,0-1.4.9-2,7.5-4.6,15-9.3,22.6-14,.2,0,.3-.2.6-.4.1,1.9.3,3.7.4,5.4.3,4.9.6,9.8,1,14.7,0,1-.2,1.7-.9,2.3-5.5,5.5-11,11-16.5,16.4-.3.3-.6.6-1,.9h-1.4Z"/>
          <path class="cls-1" d="M1.1,55c.4-.4.7-.9,1.1-1.3,5.4-5.4,10.8-10.7,16.1-16.1.8-.8,1.6-1.1,2.7-1,6.5.3,13,.6,19.6.9-.2.4-.3.6-.5.9-5.1,7.2-9.6,14.8-13.9,22.5-.5.8-.9,1-1.8.8-7.2-1.5-14.4-2.9-21.5-4.3-.7-.1-1.3-.7-1.9-1.1,0-.4,0-.8,0-1.1Z"/>
          <path class="cls-1" d="M1.1,116.5c3.6-6.3,7.3-12.6,10.9-18.9,1.2-2,2.2-4.1,3.5-6,2.2-3.3,5.4-5.1,9.5-4.4,3.7.6,6.2,2.9,7.3,6.5,1.3,4.1-.5,8.5-4.4,10.7-6.7,3.9-13.5,7.7-20.2,11.5-1.1.6-2.2,1.3-3.4,1.9-1.7,1-2.4.8-3.3-.8,0-.2,0-.3,0-.5Z"/>
          <path class="cls-1" d="M43.5,70.9c-3-3-6-6-9.1-9.1,2.2-3.6,4.4-7.4,6.7-11.1,4.6-7.3,9.4-14.3,15.4-20.5,7.7-7.9,16.5-14.3,26.3-19.3.7-.3,1-.3,1.6.2,8,8,16,16,24,24,.6.6.6,1,.2,1.7-7,14.8-17.5,26.7-31.1,35.7-6.3,4.2-12.9,8.1-19.3,12.1-.3.2-1,.2-1.2,0-2.8-2.7-5.5-5.5-8.4-8.3.3-.3.6-.6.9-.9,3.8-3.8,7.6-7.6,11.4-11.4,1.1-1.1,1.5-2.5,1-4-.5-1.5-1.6-2.3-3.1-2.5-1.4-.2-2.4.4-3.4,1.3-3.7,3.7-7.5,7.5-11.2,11.2-.3.3-.6.6-.8.8ZM63,41c-.1,8.5,7,15.7,15.4,15.8,8.8,0,15.9-6.9,16-15.6.1-8.7-6.8-15.8-15.4-16-8.9-.1-16,6.8-16.1,15.7Z"/>
          <path class="cls-1" d="M91.3,7.1c3.2-1,6.6-2.3,10-3.1,4.9-1.1,9.9-2,14.9-2.9,1.6-.3,2.5.6,2.3,2.1-1.1,8.6-3.1,16.9-6.2,24.9-7-7-14-14-21.1-21.1Z"/>
          <path class="cls-1" d="M37.6,76.5c-1.8,1.8-3.8,3.8-5.7,5.8-1.5-1.5-3.1-2.9-4.5-4.6-.4-.4-.6-1.4-.3-2,1-2.3,2.2-4.4,3.3-6.5,2.5,2.5,4.9,4.9,7.3,7.3Z"/>
          <path class="cls-1" d="M43.3,82c2.3,2.3,4.7,4.7,7.2,7.2-2.1,1.2-4.2,2.4-6.5,3.5-.5.2-1.5,0-2-.4-1.6-1.4-3.1-3-4.6-4.5,2-2,3.9-3.9,5.8-5.8Z"/>
          <path class="cls-1" d="M70.5,41c0-4.6,3.7-8.2,8.2-8.2,4.6,0,8.2,3.8,8.1,8.4,0,4.4-3.7,8-8.2,8-4.6,0-8.2-3.7-8.2-8.3Z"/>
        </g>
      </g>
    </g>
  </g>
</svg>